<svg width="553" height="653" viewBox="0 0 553 653" fill="none" xmlns="http://www.w3.org/2000/svg">
<g clip-path="url(#clip0_140_2868)">
<path d="M217.829 272.638C217.829 272.638 215.864 272.344 216.449 270.008C218.326 268.973 221.532 251.946 276.39 272.361C333.865 296.606 353.492 323.318 353.038 322.18C353.656 323.121 332.357 292.714 286.576 271.451C241.928 251.826 228.254 254.784 215.452 262.39C215.452 262.39 223.382 245.427 224.922 242.868C226.052 241.748 248.845 226.324 307.88 252.67C308.711 252.692 275.892 231.961 240.674 233.163C240.774 233.223 242.406 227.37 254.637 226.278C266.868 225.186 294.98 228.525 325.142 245.151C340.113 253.135 357.855 267.116 368.45 280.328C379.4 293.593 383.539 305.494 379.441 310.979C378.289 312.695 376.856 314.205 375.203 315.446C375.37 315.547 382.177 322.788 373.819 333.798C365.462 344.808 359.208 357.13 353.472 353.108C352.253 353.354 352.908 336.82 292.715 299.866C231.019 265.561 218.259 273.854 217.829 272.638Z" fill="#8929ED" fill-opacity="0.2"/>
<path d="M195.049 350.885C194.973 350.425 194.856 349.974 194.699 349.535C194.503 348.913 194.235 348.317 193.901 347.756C193.658 347.329 193.309 346.97 192.888 346.714C192.721 346.616 192.527 346.577 192.335 346.601C192.143 346.626 191.964 346.713 191.827 346.85C190.689 347.766 189.626 348.772 188.649 349.858C188.21 350.323 187.788 350.798 187.342 351.35C189.834 345.354 192.333 339.271 194.955 333.285C203.798 312.61 212.979 291.979 222.137 272.634L224.877 266.832C227.019 267.551 229.237 268.294 231.513 269.094L229.488 273.367C228.901 274.608 228.33 275.859 227.732 277.117L225.154 282.651C217.012 300.193 208.835 318.512 201.02 336.798C199.014 341.469 197.024 346.165 195.049 350.885Z" fill="#5677DE" fill-opacity="0.25"/>
<path d="M186.34 371.982C185.931 372.358 185.519 372.703 185.103 373.014C184.61 373.417 184.078 373.768 183.515 374.064C183.103 374.292 182.648 374.43 182.178 374.467C181.986 374.463 181.799 374.409 181.635 374.311C181.47 374.212 181.335 374.071 181.242 373.903C181.057 373.543 180.951 373.147 180.932 372.742C180.912 372.337 180.979 371.933 181.128 371.556C181.467 370.377 181.943 369.241 182.548 368.173C183.31 366.8 184.154 365.475 185.075 364.203C186.063 362.824 187.131 361.504 188.274 360.25C189.397 358.989 190.53 357.826 191.653 356.793C192.173 356.308 192.662 355.873 193.178 355.432C190.79 361.104 188.473 366.544 186.34 371.982Z" fill="#5677DE" fill-opacity="0.25"/>
<path d="M273.855 433.877L273.436 434.081C273.577 433.847 273.718 433.612 273.976 433.449L274.93 433.339C274.549 433.52 274.193 433.693 273.855 433.877Z" fill="#5677DE" fill-opacity="0.25"/>
<path d="M279.421 437.386L279.686 437.363C274.169 444.007 268.676 450.446 263.209 456.679C252.579 468.965 242.219 480.501 232.543 490.787C203.313 478.026 178.292 459.482 155.348 435.216C159.758 422.171 164.855 408.06 170.502 393.414C172.992 386.892 175.612 380.267 178.283 373.558L178.353 373.782C178.661 374.72 179.247 375.542 180.034 376.138C180.407 376.434 180.847 376.637 181.315 376.728C181.783 376.819 182.267 376.798 182.725 376.664C183.454 376.486 184.149 376.188 184.781 375.783C181.55 383.84 178.426 391.757 175.449 399.467C174.579 401.746 173.709 404.024 172.852 406.243C169.281 415.964 165.8 425.193 162.742 433.947C182.384 455.975 204.723 472.313 230.947 482.649C237.015 476.048 243.376 468.963 249.951 461.482C251.933 459.212 253.961 456.901 255.983 454.563C255.983 454.563 256.044 454.463 256.074 454.413C260.309 449.534 264.617 444.494 268.95 439.378C269.593 439.218 270.256 439.025 270.922 438.788C272.416 438.274 273.863 437.687 275.321 437.083C276.674 437.318 278.048 437.42 279.421 437.386Z" fill="#5677DE" fill-opacity="0.25"/>
<path d="M283.223 433.113C282.623 433.845 281.966 434.634 281.406 435.3C280.572 435.402 279.732 435.444 278.892 435.427C279.712 435.01 280.496 434.616 281.21 434.225C281.924 433.834 282.637 433.444 283.223 433.113Z" fill="#5677DE" fill-opacity="0.25"/>
<path d="M288.424 426.856L287.003 428.575C287.003 428.519 286.989 428.463 286.963 428.414C286.813 427.891 286.473 427.443 286.01 427.157C285.542 426.875 285.009 426.965 284.389 427.389C284.389 427.389 283.964 427.68 283.431 427.998C282.898 428.315 282.292 428.679 281.538 429.137C280.784 429.594 280.041 429.921 279.186 430.319C278.391 430.704 277.569 431.031 276.728 431.3C276.346 431.421 275.958 431.522 275.565 431.603C277.074 429.777 278.61 427.944 280.139 426.085C280.951 425.929 281.772 425.829 282.597 425.787C283.997 425.689 285.404 425.819 286.761 426.174C287.343 426.328 287.902 426.558 288.424 426.856Z" fill="#5677DE" fill-opacity="0.25"/>
<path d="M354.149 342.67C352.915 344.342 351.68 346.015 350.429 347.677C336.594 366.35 321.704 385.641 306.64 404.463C301.224 411.228 295.778 417.93 290.349 424.528C289.77 424.051 289.142 423.635 288.476 423.287C287.009 422.499 285.419 421.966 283.774 421.711C289.522 414.735 295.317 407.605 301.131 400.441C314.509 383.703 327.812 366.556 340.436 349.706C342.372 347.134 344.29 344.552 346.198 341.987C346.237 341.942 346.267 341.891 346.289 341.836C347.238 340.562 348.171 339.277 349.11 338.02C350.792 339.579 352.507 341.158 354.149 342.67Z" fill="#5677DE" fill-opacity="0.25"/>
<path d="M223.924 275.759C226.504 276.583 229.068 277.511 231.711 278.532C234.355 279.553 237.025 280.682 239.738 281.927C245.4 284.435 250.82 287.453 255.933 290.945C250.26 288.532 244.384 286.628 238.375 285.253C235.513 284.556 232.678 283.967 229.944 283.438C227.209 282.908 224.505 282.443 221.934 282.171C222.613 279.983 223.269 277.871 223.924 275.759Z" fill="#5677DE" fill-opacity="0.25"/>
<path d="M342.689 352.588C339.661 348.875 336.174 344.976 332.457 341.007C328.739 337.039 324.693 333.009 320.4 329.013C316.107 325.016 311.562 320.983 306.77 317.21C301.926 313.313 296.832 309.738 291.521 306.506C297.287 308.943 302.891 311.745 308.299 314.895C313.672 317.969 318.837 321.237 323.683 324.655C328.53 328.073 333.226 331.514 337.457 334.857C341.687 338.201 345.71 341.624 349.345 344.974C347.109 347.365 344.879 349.896 342.689 352.588Z" fill="#5677DE" fill-opacity="0.25"/>
<path d="M253.78 462.465C253.053 462.347 252.608 462.216 252.066 462.094L250.547 461.704C249.563 461.408 248.612 461.132 247.649 460.803C245.745 460.181 243.891 459.475 242.067 458.72C238.447 457.205 234.909 455.502 231.468 453.617C228.032 451.754 224.717 449.691 221.432 447.577C219.81 446.487 218.208 445.363 216.616 444.223C215.024 443.082 213.472 441.875 211.92 440.668L217.149 443.336L222.499 445.804C226.126 447.349 229.804 448.81 233.461 449.963C237.18 451.191 240.966 452.207 244.8 453.005C246.805 453.46 248.656 453.753 250.58 454C251.541 454.146 252.505 454.247 253.469 454.349L254.889 454.451C255.304 454.487 255.721 454.502 256.137 454.497C255.337 457.227 254.573 459.821 253.78 462.465Z" fill="#5677DE" fill-opacity="0.25"/>
<path d="M174.444 397.426C175.536 399.587 176.738 401.792 177.964 403.919C179.19 406.047 180.443 408.168 181.746 410.205C184.29 414.299 187.124 418.205 190.227 421.894C186.433 419.278 182.855 416.362 179.525 413.175C177.837 411.589 176.189 409.937 174.577 408.26C172.966 406.584 171.411 404.851 169.796 403.105C171.436 401.175 172.938 399.323 174.444 397.426Z" fill="#5677DE" fill-opacity="0.25"/>
<path d="M372.92 247.611C370.338 252.331 367.67 257.143 364.916 262.047C364.797 262.262 364.631 262.446 364.43 262.586C364.229 262.726 363.998 262.818 363.756 262.855C363.514 262.892 363.266 262.873 363.032 262.799C362.799 262.725 362.585 262.598 362.408 262.429C357.692 258.907 352.896 255.519 347.848 252.208C342.711 253.172 337.524 254.22 332.266 255.385L331.306 252.323C336.564 251.159 341.872 250.138 346.898 249.13C349.676 244.514 352.227 239.897 354.764 235.455C354.027 232.892 353.127 230.3 352.29 227.791C344.93 223.362 337.329 219.221 329.567 215.461C329.348 215.385 329.147 215.262 328.978 215.101C328.81 214.941 328.679 214.746 328.593 214.529C328.506 214.313 328.468 214.081 328.479 213.849C328.491 213.617 328.553 213.389 328.66 213.183C332.485 207.055 336.155 201.221 339.604 195.755C339.021 194.478 338.437 193.215 337.851 191.966C334.579 190.475 331.3 189.072 327.984 187.691C327.007 187.308 326.493 186.383 327.032 185.751C328.626 183.407 330.162 181.119 331.665 178.925C331.986 178.593 332.405 178.373 332.86 178.299C333.316 178.224 333.783 178.298 334.193 178.509C337.533 179.927 340.845 181.389 344.131 182.895C345.078 183.328 345.602 184.236 345.119 184.811C343.71 187.001 342.301 189.191 340.892 191.381L342.655 195.153C350.089 198.701 357.353 202.518 364.448 206.605C364.692 206.705 364.915 206.853 365.101 207.04C365.287 207.228 365.433 207.452 365.53 207.698C365.627 207.943 365.673 208.206 365.665 208.471C365.658 208.735 365.596 208.995 365.485 209.235C362.317 214.915 358.914 220.91 355.314 227.196C356.101 229.674 356.984 232.257 357.798 234.843C362.764 238.074 367.581 241.429 372.247 244.905C372.654 245.21 372.943 245.646 373.065 246.139C373.188 246.632 373.137 247.152 372.92 247.611Z" fill="#5677DE" fill-opacity="0.25"/>
<path d="M322.102 215.297C318.204 213.521 314.282 211.821 310.334 210.243C309.875 210.052 309.367 210.015 308.885 210.134C308.402 210.254 307.971 210.526 307.655 210.909C305.672 213.976 303.649 217.11 301.613 220.305C301.49 220.508 301.416 220.736 301.398 220.972C301.379 221.208 301.416 221.446 301.505 221.665C301.594 221.885 301.733 222.081 301.911 222.237C302.089 222.393 302.301 222.506 302.53 222.566C306.492 224.198 310.454 225.944 314.382 227.784C314.837 227.998 315.352 228.049 315.84 227.928C316.328 227.806 316.759 227.52 317.061 227.118C319.074 223.773 321.077 220.672 323.019 217.558C323.13 217.353 323.195 217.126 323.207 216.893C323.22 216.66 323.181 216.427 323.094 216.211C323.006 215.995 322.872 215.801 322.7 215.643C322.529 215.485 322.324 215.367 322.102 215.297Z" fill="#5677DE" fill-opacity="0.25"/>
<path d="M352.727 186.519L356.782 188.526C357.668 189.06 358.837 188.897 359.209 188.279L360.84 185.569C361.212 184.95 360.761 184.109 359.851 183.653L355.847 181.675C354.977 181.152 353.791 181.304 353.429 181.906L351.798 184.616C351.359 185.195 351.773 186.059 352.727 186.519Z" fill="#5677DE" fill-opacity="0.25"/>
<path d="M381.503 228.352L378.309 226.088C378.142 225.938 377.944 225.826 377.729 225.76C377.514 225.694 377.287 225.676 377.064 225.707C376.842 225.738 376.629 225.817 376.44 225.939C376.251 226.061 376.091 226.223 375.971 226.413L374.381 229.398C374.183 229.841 374.15 230.341 374.287 230.807C374.423 231.273 374.721 231.676 375.127 231.943L378.301 234.24C378.466 234.39 378.662 234.502 378.876 234.567C379.089 234.631 379.314 234.648 379.535 234.615C379.756 234.582 379.966 234.5 380.151 234.376C380.336 234.251 380.491 234.087 380.605 233.895L382.216 230.878C382.4 230.438 382.43 229.949 382.3 229.491C382.171 229.032 381.89 228.631 381.503 228.352Z" fill="#5677DE" fill-opacity="0.25"/>
<path d="M387.325 243.134C385.596 241.729 383.83 240.348 382.038 238.973C381.874 238.819 381.678 238.705 381.464 238.638C381.25 238.571 381.024 238.554 380.802 238.587C380.581 238.62 380.369 238.703 380.184 238.83C379.999 238.956 379.845 239.123 379.734 239.318C378.727 240.99 377.797 242.914 376.797 244.727C376.591 245.184 376.544 245.697 376.665 246.183C376.786 246.669 377.067 247.1 377.463 247.407C379.246 248.798 380.992 250.214 382.727 251.645C382.886 251.801 383.078 251.918 383.289 251.987C383.501 252.055 383.725 252.073 383.945 252.039C384.165 252.005 384.373 251.92 384.554 251.792C384.735 251.663 384.884 251.493 384.988 251.297C386.065 249.507 386.964 247.634 387.921 245.817C388.133 245.367 388.189 244.859 388.081 244.374C387.974 243.888 387.708 243.452 387.325 243.134Z" fill="#5677DE" fill-opacity="0.25"/>
<path d="M308.148 205.168C309.58 202.977 311.009 200.829 312.459 198.648C312.912 197.896 312.518 196.998 311.43 196.571C308.579 195.516 305.708 194.495 302.84 193.543C302.378 193.373 301.876 193.346 301.398 193.465C300.921 193.584 300.49 193.843 300.161 194.209C298.752 196.323 297.306 198.461 295.817 200.708C295.354 201.478 295.714 202.355 296.738 202.698C299.596 203.666 302.494 204.681 305.378 205.756C305.841 205.974 306.362 206.034 306.862 205.928C307.362 205.821 307.814 205.554 308.148 205.168Z" fill="#5677DE" fill-opacity="0.25"/>
<path d="M312.446 413.858C300.629 428.345 288.504 442.738 276.487 456.422C275.819 457.185 274.97 457.768 274.019 458.119C273.068 458.47 272.043 458.577 271.04 458.43C269.172 458.126 266.495 457.54 263.208 456.679C261.08 456.127 258.701 455.424 256.097 454.677L255.98 454.607L255.561 454.469C242.711 450.381 225.475 443.357 211.688 433.443C197.777 424.227 184.661 410.547 175.676 399.809L175.452 399.537L174.142 397.928C172.822 396.336 171.652 394.835 170.532 393.478C168.18 390.421 166.392 387.864 165.253 386.085C164.69 385.224 164.332 384.246 164.204 383.225C164.076 382.205 164.182 381.168 164.514 380.195C170.578 364.023 177.122 347.546 183.873 331.331C184.612 329.498 186.26 328.576 187.722 329.365C189.184 330.153 191.657 331.459 194.985 333.348C196.658 334.355 198.766 335.509 201.034 336.852C211.929 343.204 228.712 353.327 251.425 367.679C274.54 382.273 290.742 393.209 301.004 400.501C303.161 402.027 305.035 403.382 306.64 404.576C309.446 406.653 311.469 408.212 312.683 409.262C313.897 410.311 313.858 412.156 312.446 413.858Z" fill="#F79400" fill-opacity="0.266667"/>
</g>
<defs>
<clipPath id="clip0_140_2868">
<rect width="292.821" height="585.643" fill="white" transform="translate(301.98) rotate(31.0401)"/>
</clipPath>
</defs>
</svg>
