<svg width="250" height="250" viewBox="0 0 250 250" fill="none" xmlns="http://www.w3.org/2000/svg">
<path d="M136.626 31.6748L93.4071 31.9036C73.8715 32.0071 64.1038 32.0588 58.067 38.1598C52.0302 44.2609 52.0819 54.0286 52.1854 73.5642L52.7339 177.167C52.8373 196.703 52.889 206.47 58.9901 212.507C65.0911 218.544 74.8589 218.492 94.3944 218.389L156.556 218.06C176.092 217.956 185.859 217.904 191.896 211.803C197.933 205.702 197.881 195.935 197.778 176.399L197.33 91.7392C197.307 87.5045 197.296 85.3871 196.497 83.4873C195.699 81.5876 194.193 80.0983 191.183 77.1197L151.31 37.6661C148.299 34.6876 146.794 33.1983 144.886 32.4197C142.978 31.6412 140.86 31.6524 136.626 31.6748Z" fill="#5677DE" fill-opacity="0.25"/>
<path d="M134.848 31.6843L135.068 73.1255C135.119 82.8932 135.145 87.7771 138.196 90.7955C141.246 93.8139 146.13 93.788 155.898 93.7363L197.339 93.5169" stroke="#5677DE" stroke-opacity="0.25"/>
</svg>
